HIERARCHY
ROOT Hips
{
 OFFSET 0.000000 0.000000 0.000000
 CHANNELS 6 Xposition Yposition Zposition Yrotation Xrotation Zrotation
 JOINT Chest
 {
  OFFSET 0.000000 9.585900 0.002600
  CHANNELS 3 Yrotation Xrotation Zrotation
  JOINT Chest2
  {
   OFFSET 0.000000 9.601200 -0.005300
   CHANNELS 3 Yrotation Xrotation Zrotation
   JOINT Chest3
   {
    OFFSET 0.000000 9.561800 0.000000
    CHANNELS 3 Yrotation Xrotation Zrotation
    JOINT Chest4
    {
     OFFSET 0.000000 9.552100 0.000000
     CHANNELS 3 Yrotation Xrotation Zrotation
     JOINT Neck
     {
      OFFSET 0.000000 14.453000 0.000000
      CHANNELS 3 Yrotation Xrotation Zrotation
      JOINT Head
      {
       OFFSET 0.000000 8.936500 -0.011300
       CHANNELS 3 Yrotation Xrotation Zrotation
       End Site
       {
        OFFSET 0.000000 17.073600 -0.006000
       }
      }
     }
     JOINT RightCollar
     {
      OFFSET -2.921100 9.558500 0.000000
      CHANNELS 3 Yrotation Xrotation Zrotation
      JOINT RightShoulder
      {
       OFFSET -13.519700 0.000000 0.000000
       CHANNELS 3 Yrotation Xrotation Zrotation
       JOINT RightElbow
       {
        OFFSET 0.000000 -29.696600 0.000000
        CHANNELS 3 Yrotation Xrotation Zrotation
        JOINT RightWrist
        {
         OFFSET 0.000000 -24.004700 0.000000
         CHANNELS 3 Yrotation Xrotation Zrotation
         End Site
         {
          OFFSET 0.000000 -17.728500 0.000000
         }
        }
       }
      }
     }
     JOINT LeftCollar
     {
      OFFSET 2.921100 9.558500 0.000000
      CHANNELS 3 Yrotation Xrotation Zrotation
      JOINT LeftShoulder
      {
       OFFSET 13.519700 0.000000 0.000000
       CHANNELS 3 Yrotation Xrotation Zrotation
       JOINT LeftElbow
       {
        OFFSET 0.000000 -29.696600 0.000000
        CHANNELS 3 Yrotation Xrotation Zrotation
        JOINT LeftWrist
        {
         OFFSET 0.000000 -24.004700 0.000000
         CHANNELS 3 Yrotation Xrotation Zrotation
         End Site
         {
          OFFSET 0.000000 -17.728500 0.000000
         }
        }
       }
      }
     }
    }
   }
  }
 }
 JOINT RightHip
 {
  OFFSET -7.771700 -0.012900 -0.001300
  CHANNELS 3 Yrotation Xrotation Zrotation
  JOINT RightKnee
  {
   OFFSET 0.000000 -40.869800 0.001200
   CHANNELS 3 Yrotation Xrotation Zrotation
   JOINT RightAnkle
   {
    OFFSET 0.000000 -39.717900 0.002100
    CHANNELS 3 Yrotation Xrotation Zrotation
    JOINT RightToe
    {
     OFFSET 0.000000 -4.965400 11.033500
     CHANNELS 3 Yrotation Xrotation Zrotation
     End Site
     {
      OFFSET 0.000000 -1.423100 5.872300
     }
    }
   }
  }
 }
 JOINT LeftHip
 {
  OFFSET 7.771700 -0.012900 -0.001300
  CHANNELS 3 Yrotation Xrotation Zrotation
  JOINT LeftKnee
  {
   OFFSET 0.000000 -40.869800 0.001200
   CHANNELS 3 Yrotation Xrotation Zrotation
   JOINT LeftAnkle
   {
    OFFSET 0.000000 -39.717900 0.002100
    CHANNELS 3 Yrotation Xrotation Zrotation
    JOINT LeftToe
    {
     OFFSET 0.000000 -4.965400 11.033500
     CHANNELS 3 Yrotation Xrotation Zrotation
     End Site
     {
      OFFSET 0.000000 -1.423100 5.872300
     }
    }
   }
  }
 }
}
MOTION
Frames: 16
Frame Time: 0.008333
-233.178307 57.709194 -79.608779 159.519104 -7.738703 -0.061053 3.268881 7.843731 0.975518 0.145337 0.382759 0.001243 0.276962 0.715894 0.017119 2.876874 7.407679 0.294023 1.419748 18.588749 -0.852872 2.875738 -1.267471 -2.023585 2.342688 8.373782 1.154694 0.831528 -7.908799 -9.668427 -65.385944 -81.753760 93.260805 -3.057545 5.569267 -31.078050 -5.848632 8.620070 -2.323138 12.444971 -5.159311 2.541667 105.904453 -82.573042 -134.605817 -0.509432 5.477256 15.808529 -12.618909 -64.028169 8.145349 -39.603021 70.205160 -42.361928 -5.415682 -6.946128 0.848656 -0.226572 0.750679 -0.095924 2.649987 -66.860209 15.766400 42.153095 66.289356 34.759156 -17.774100 -9.961991 5.090815 -0.209326 -0.901662 -0.091561
-233.175625 57.712539 -79.610660 159.530682 -7.726652 -0.060583 3.261437 7.838958 0.975304 0.154563 0.403782 0.006141 0.269188 0.699624 0.012576 2.872195 7.414185 0.294608 1.417091 18.571647 -0.856305 2.874249 -1.292892 -2.027831 2.322949 8.365772 1.145229 0.790589 -7.912452 -9.631348 -65.379373 -81.748496 93.268438 -3.050330 5.567590 -31.067032 -5.859406 8.614843 -2.317877 12.447450 -5.161345 2.541279 105.685416 -82.587318 -134.413874 -0.505686 5.452332 15.837201 -12.628974 -64.032169 8.145602 -39.594081 70.201427 -42.353765 -5.408240 -6.952874 0.848940 -0.227922 0.755368 -0.097330 2.639898 -66.868781 15.765234 42.148303 66.284745 34.749507 -17.767089 -9.939120 5.093147 -0.206891 -0.915646 -0.095827
-233.172729 57.714905 -79.612057 159.546745 -7.716617 -0.061884 3.249492 7.833978 0.975060 0.156478 0.411637 0.004772 0.266957 0.697801 0.012268 2.867792 7.425984 0.297848 1.416136 18.548732 -0.860108 2.873659 -1.314233 -2.031516 2.297344 8.361810 1.122674 0.770913 -7.920434 -9.584938 -65.371662 -81.754727 93.269541 -3.034415 5.566330 -31.045125 -5.905658 8.620003 -2.286098 12.487856 -5.172116 2.507537 105.660344 -82.589569 -134.394814 -0.498232 5.457445 15.843361 -12.641817 -64.036201 8.144827 -39.594606 70.198613 -42.354021 -5.396284 -6.954763 0.849575 -0.239720 0.754624 -0.097872 2.606429 -66.870849 15.778802 42.167082 66.268900 34.753790 -17.750711 -9.917900 5.090294 -0.229334 -0.929543 -0.097124
-233.169809 57.716497 -79.615308 159.555797 -7.720812 -0.057966 3.243254 7.848539 0.969285 0.154594 0.406187 0.005003 0.268623 0.705202 0.009407 2.864086 7.440658 0.294552 1.416333 18.521569 -0.857674 2.867851 -1.361438 -2.038857 2.293703 8.338224 1.123253 0.756802 -7.913385 -9.559051 -65.383598 -81.760305 93.271947 -3.055549 5.566974 -31.064989 -5.922319 8.598311 -2.265808 12.457688 -5.136326 2.537513 105.866286 -82.546614 -134.555350 -0.504137 5.507685 15.806260 -12.635459 -64.032020 8.132875 -39.591358 70.208993 -42.349265 -5.419591 -6.958045 0.848319 -0.233440 0.751170 -0.097153 2.591092 -66.859515 15.789138 42.189887 66.258763 34.761492 -17.771924 -9.895261 5.087137 -0.230561 -0.945405 -0.093757
-233.166520 57.716655 -79.614459 159.566822 -7.705567 -0.064997 3.237199 7.847408 0.966658 0.151714 0.395774 0.011418 0.270116 0.709758 0.004940 2.863709 7.439346 0.291372 1.414149 18.513911 -0.852133 2.870197 -1.367415 -2.037416 2.288033 8.332484 1.127039 0.749749 -7.906981 -9.535892 -65.409136 -81.771866 93.282034 -3.076532 5.566257 -31.087294 -5.928905 8.592522 -2.252462 12.435894 -5.120054 2.559199 105.876339 -82.547192 -134.563297 -0.508538 5.503546 15.798637 -12.659130 -64.046834 8.152942 -39.601938 70.212030 -42.358168 -5.421420 -6.951870 0.845293 -0.231730 0.746466 -0.097615 2.557451 -66.870291 15.821769 42.228038 66.234415 34.784565 -17.815117 -9.863080 5.078167 -0.201084 -0.942620 -0.085369
-233.162906 57.716249 -79.615082 159.562607 -7.701620 -0.069466 3.245371 7.853032 0.965938 0.150979 0.394448 0.010569 0.270500 0.710000 0.005100 2.862542 7.435933 0.286756 1.413673 18.505435 -0.850928 2.863717 -1.382965 -2.035013 2.272157 8.324024 1.127266 0.760152 -7.901002 -9.518578 -65.451463 -81.778514 93.301666 -3.099698 5.546041 -31.123919 -5.953149 8.585962 -2.231441 12.431255 -5.103781 2.573837 105.908002 -82.575078 -134.623532 -0.479294 5.472906 15.838335 -12.664670 -64.053584 8.169096 -39.619761 70.215918 -42.375445 -5.423336 -6.944185 0.843670 -0.234904 0.737662 -0.098275 2.552451 -66.875790 15.838580 42.223767 66.236162 34.778156 -17.808528 -9.835866 5.074061 -0.194128 -0.959416 -0.080746
-233.161540 57.715084 -79.614834 159.560426 -7.689787 -0.064748 3.250055 7.853090 0.953501 0.151887 0.393113 0.012330 0.268154 0.707675 0.004220 2.861638 7.430199 0.287760 1.397644 18.503429 -0.870116 2.865610 -1.398892 -2.025729 2.271057 8.320354 1.131996 0.756313 -7.897582 -9.509273 -65.503774 -81.790813 93.335586 -3.100328 5.542548 -31.121093 -5.988742 8.575573 -2.219095 12.444826 -5.088568 2.584524 105.939003 -82.586621 -134.668158 -0.467610 5.462057 15.851369 -12.649896 -64.073477 8.161541 -39.647424 70.219523 -42.399486 -5.425777 -6.934736 0.840927 -0.238967 0.728503 -0.098307 2.576493 -66.892673 15.822404 42.243033 66.231687 34.798434 -17.830662 -9.796776 5.067303 -0.165478 -0.973901 -0.071783
-233.158675 57.713692 -79.614662 159.566132 -7.683084 -0.071111 3.244345 7.853294 0.951658 0.154596 0.394712 0.013125 0.266683 0.702481 0.006827 2.861097 7.428311 0.286075 1.391891 18.504295 -0.873581 2.839749 -1.407953 -2.039049 2.259920 8.313197 1.132131 0.760956 -7.892980 -9.492498 -65.544423 -81.813279 93.365208 -3.099012 5.539315 -31.121530 -6.008865 8.571507 -2.211677 12.458719 -5.084495 2.586777 105.958932 -82.609607 -134.717414 -0.470298 5.455571 15.840647 -12.671319 -64.081308 8.178185 -39.653732 70.227436 -42.403333 -5.422066 -6.936708 0.838372 -0.244486 0.726059 -0.101317 2.574516 -66.904478 15.827392 42.253503 66.227361 34.812525 -17.853771 -9.777286 5.065258 -0.214698 -0.951505 -0.080787
-233.157549 57.712136 -79.614722 159.566396 -7.675553 -0.068620 3.237747 7.852193 0.942337 0.160313 0.395028 0.011062 0.266783 0.699249 0.010529 2.859503 7.432338 0.281096 1.394150 18.498088 -0.867702 2.837116 -1.408825 -2.039642 2.255153 8.298092 1.138604 0.760152 -7.889251 -9.488077 -65.561096 -81.821666 93.383330 -3.090131 5.529128 -31.131158 -6.010358 8.564946 -2.202263 12.429121 -5.083965 2.615797 105.976283 -82.610659 -134.735227 -0.478012 5.455317 15.827385 -12.672924 -64.090142 8.178713 -39.662694 70.227661 -42.412478 -5.413922 -6.941116 0.839181 -0.247050 0.729574 -0.105462 2.600374 -66.916891 15.807936 42.253159 66.224718 34.823994 -17.897782 -9.755470 5.056559 -0.192291 -0.954810 -0.075986
-233.155538 57.710867 -79.616366 159.562822 -7.680501 -0.069572 3.231214 7.862840 0.940649 0.155163 0.401003 0.005416 0.276665 0.695447 0.010808 2.855131 7.437136 0.278173 1.391771 18.498634 -0.870066 2.833291 -1.407687 -2.043545 2.254738 8.277977 1.143222 0.741689 -7.898383 -9.484099 -65.511382 -81.822621 93.358766 -3.078149 5.520223 -31.138415 -6.010874 8.552149 -2.190318 12.411475 -5.094404 2.662499 105.896723 -82.591356 -134.657549 -0.511888 5.471323 15.763073 -12.674929 -64.085520 8.182778 -39.669990 70.230804 -42.419658 -5.405895 -6.946521 0.836934 -0.253187 0.731405 -0.107300 2.620670 -66.916580 15.796105 42.253684 66.227312 34.834628 -17.906375 -9.745706 5.051350 -0.188635 -0.962128 -0.072587
-233.154760 57.709686 -79.618060 159.562039 -7.685021 -0.066349 3.225879 7.870309 0.936896 0.157456 0.399841 0.005312 0.266348 0.701515 0.010161 2.849949 7.446550 0.276826 1.383002 18.518014 -0.878382 2.845020 -1.416915 -2.056688 2.258058 8.249157 1.126457 0.748471 -7.889247 -9.471135 -65.599654 -81.831593 93.435368 -3.064016 5.523820 -31.123873 -6.007680 8.545653 -2.189511 12.414047 -5.116051 2.692283 105.858131 -82.583673 -134.638054 -0.522905 5.479225 15.731175 -12.676449 -64.082618 8.183211 -39.696147 70.228796 -42.451737 -5.387502 -6.952855 0.840829 -0.261927 0.734185 -0.110914 2.646188 -66.915497 15.774428 42.243622 66.229475 34.833409 -17.911626 -9.734135 5.049310 -0.190096 -0.958003 -0.074780
-233.152248 57.708707 -79.618819 159.554246 -7.690036 -0.076467 3.230511 7.877542 0.947952 0.152753 0.403229 0.005583 0.262794 0.708442 0.010971 2.850569 7.447353 0.276366 1.390708 18.509616 -0.882869 2.826585 -1.348206 -2.070439 2.260829 8.233463 1.116265 0.727721 -7.903606 -9.475945 -65.626184 -81.848176 93.473175 -3.075147 5.530014 -31.101543 -6.003074 8.534606 -2.192653 12.414185 -5.129620 2.717836 105.853149 -82.578241 -134.657292 -0.519623 5.485189 15.729946 -12.710891 -64.069718 8.225687 -39.685487 70.224746 -42.451613 -5.372568 -6.961041 0.842895 -0.266041 0.741849 -0.114366 2.634586 -66.912862 15.796593 42.241804 66.230457 34.834630 -17.882173 -9.727443 5.045265 -0.190956 -0.943307 -0.075797
-233.150937 57.707849 -79.619108 159.549154 -7.692229 -0.083978 3.231859 7.884348 0.956654 0.152955 0.404269 0.005519 0.266314 0.704324 0.010211 2.845741 7.462353 0.276758 1.388392 18.516865 -0.886463 2.829292 -1.329564 -2.078479 2.263484 8.216307 1.111670 0.680064 -7.927907 -9.514360 -65.602133 -81.812286 93.500346 -3.073003 5.528585 -31.095329 -6.006331 8.520290 -2.192808 12.414347 -5.141855 2.737278 105.812157 -82.567991 -134.621994 -0.514574 5.488375 15.735837 -12.727935 -64.062122 8.248461 -39.663029 70.225723 -42.432494 -5.370670 -6.966275 0.842775 -0.267190 0.747537 -0.115693 2.627135 -66.911759 15.812363 42.236034 66.231166 34.831085 -17.867046 -9.726197 5.044488 -0.171458 -0.928706 -0.074360
-233.150264 57.707267 -79.619804 159.554886 -7.697969 -0.091383 3.207884 7.903275 0.961007 0.162039 0.398553 0.005734 0.266647 0.705853 0.010253 2.844741 7.470893 0.276887 1.381977 18.555340 -0.893590 2.843097 -1.362883 -2.085887 2.263702 8.194532 1.102071 0.675823 -7.928708 -9.518658 -65.550500 -81.814631 93.460550 -3.079119 5.521988 -31.090588 -6.009243 8.503822 -2.198036 12.413706 -5.150950 2.753979 105.816572 -82.561756 -134.626428 -0.527965 5.499384 15.714035 -12.747800 -64.052203 8.261419 -39.665352 70.227158 -42.434310 -5.364097 -6.977122 0.843710 -0.272616 0.754330 -0.119057 2.607261 -66.906165 15.827273 42.223998 66.228784 34.822124 -17.856728 -9.721834 5.040091 -0.197099 -0.921950 -0.076912
-233.153354 57.706706 -79.620227 159.551537 -7.697078 -0.079864 3.206637 7.905225 0.949288 0.153079 0.406021 0.005504 0.266871 0.707265 0.010295 2.829947 7.496658 0.274300 1.400315 18.549521 -0.900271 2.849878 -1.369726 -2.089498 2.278381 8.153710 1.088827 0.673513 -7.928366 -9.518713 -65.479487 -81.817298 93.399834 -3.083774 5.511497 -31.084599 -5.996718 8.466447 -2.202388 12.408817 -5.155668 2.766756 105.889129 -82.570305 -134.725867 -0.524029 5.494967 15.738329 -12.723904 -64.054679 8.237069 -39.663154 70.225305 -42.429632 -5.374278 -6.983678 0.840258 -0.268466 0.764011 -0.118634 2.630981 -66.906586 15.803099 42.223342 66.228067 34.822684 -17.878429 -9.707590 5.038328 -0.185795 -0.930835 -0.076099
-233.153872 57.706349 -79.619641 159.548505 -7.698923 -0.087381 3.202089 7.913961 0.955683 0.153060 0.406927 0.005327 0.259286 0.713092 0.008306 2.839283 7.490973 0.274352 1.402367 18.564525 -0.904021 2.869252 -1.289906 -2.107121 2.281045 8.139734 1.080797 0.648448 -7.925553 -9.545829 -65.498749 -81.792425 93.445747 -3.071514 5.512100 -31.102987 -6.005438 8.455100 -2.209086 12.399442 -5.155956 2.774766 105.896284 -82.572739 -134.716824 -0.524697 5.493791 15.739066 -12.738649 -64.047508 8.254246 -39.651826 70.221764 -42.414890 -5.377047 -6.987835 0.835848 -0.260124 0.770151 -0.118049 2.606020 -66.907302 15.827083 42.237931 66.227118 34.835814 -17.861510 -9.702743 5.041103 -0.205939 -0.925414 -0.083959
